<svg xmlns="http://www.w3.org/2000/svg" xmlns:xlink="http://www.w3.org/1999/xlink" width="500" zoomAndPan="magnify" viewBox="0 0 375 374.999991" height="500" preserveAspectRatio="xMidYMid meet" version="1.0"><defs><g/><clipPath id="7606051e9b"><path d="M 22.902344 22.902344 L 352.097656 22.902344 L 352.097656 352.097656 L 22.902344 352.097656 Z M 22.902344 22.902344 " clip-rule="nonzero"/></clipPath><clipPath id="02c00a7d5e"><path d="M 187.5 22.902344 C 96.59375 22.902344 22.902344 96.59375 22.902344 187.5 C 22.902344 278.40625 96.59375 352.097656 187.5 352.097656 C 278.40625 352.097656 352.097656 278.40625 352.097656 187.5 C 352.097656 96.59375 278.40625 22.902344 187.5 22.902344 Z M 187.5 22.902344 " clip-rule="nonzero"/></clipPath><clipPath id="144a2048a3"><path d="M 28.0625 28.0625 L 346.8125 28.0625 L 346.8125 346.8125 L 28.0625 346.8125 Z M 28.0625 28.0625 " clip-rule="nonzero"/></clipPath><clipPath id="ece834d3fb"><path d="M 33.703125 33.703125 L 341.203125 33.703125 L 341.203125 341.203125 L 33.703125 341.203125 Z M 33.703125 33.703125 " clip-rule="nonzero"/></clipPath><clipPath id="f71208005d"><path d="M 112.5 77.070312 L 262.5 77.070312 L 262.5 208.320312 L 112.5 208.320312 Z M 112.5 77.070312 " clip-rule="nonzero"/></clipPath></defs><g clip-path="url(#7606051e9b)"><g clip-path="url(#02c00a7d5e)"><path fill="#6ca0dc" d="M 22.902344 22.902344 L 352.097656 22.902344 L 352.097656 352.097656 L 22.902344 352.097656 Z M 22.902344 22.902344 " fill-opacity="1" fill-rule="nonzero"/></g></g><g clip-path="url(#144a2048a3)"><path fill="#ffffff" d="M 187.496094 346.929688 C 99.609375 346.929688 28.0625 275.378906 28.0625 187.496094 C 28.0625 99.609375 99.609375 28.0625 187.496094 28.0625 C 275.378906 28.0625 346.929688 99.609375 346.929688 187.496094 C 346.929688 275.378906 275.378906 346.929688 187.496094 346.929688 Z M 187.496094 30.417969 C 100.867188 30.417969 30.417969 100.867188 30.417969 187.496094 C 30.417969 274.125 100.867188 344.574219 187.496094 344.574219 C 274.125 344.574219 344.574219 274.125 344.574219 187.496094 C 344.574219 100.867188 274.125 30.417969 187.496094 30.417969 Z M 187.496094 30.417969 " fill-opacity="1" fill-rule="nonzero"/></g><g clip-path="url(#ece834d3fb)"><path fill="#ffffff" d="M 187.496094 341.285156 C 102.71875 341.285156 33.703125 272.269531 33.703125 187.496094 C 33.703125 102.71875 102.71875 33.703125 187.496094 33.703125 C 272.269531 33.703125 341.285156 102.71875 341.285156 187.496094 C 341.285156 272.269531 272.269531 341.285156 187.496094 341.285156 Z M 187.496094 35.976562 C 103.933594 35.976562 35.976562 103.933594 35.976562 187.496094 C 35.976562 271.058594 103.933594 339.011719 187.496094 339.011719 C 271.058594 339.011719 339.011719 271.058594 339.011719 187.496094 C 339.011719 103.933594 271.058594 35.976562 187.496094 35.976562 Z M 187.496094 35.976562 " fill-opacity="1" fill-rule="nonzero"/></g><g clip-path="url(#f71208005d)"><path fill="#afddff" d="M 239.945312 201.6875 C 224.988281 200.488281 205.929688 196.105469 193.84375 188.820312 C 195.242188 188.058594 197.179688 186.953125 199.484375 185.484375 C 204.019531 182.597656 210.535156 177.960938 215.828125 172.242188 C 218.113281 169.773438 219.972656 166.976562 221.347656 163.929688 C 222.722656 160.890625 223.582031 157.675781 223.910156 154.378906 C 224.015625 153.3125 224.082031 152.367188 224.101562 151.566406 C 224.1875 148.640625 223.648438 145.777344 222.503906 143.050781 C 221.40625 140.445312 219.8125 138.09375 217.761719 136.058594 C 215.714844 134.023438 213.328125 132.417969 210.664062 131.285156 C 207.875 130.101562 204.929688 129.503906 201.90625 129.503906 L 201.835938 129.503906 C 196.574219 129.519531 191.523438 131.324219 187.546875 134.59375 C 183.550781 131.308594 178.472656 129.503906 173.183594 129.503906 C 170.917969 129.503906 168.632812 129.835938 166.394531 130.488281 C 163 131.476562 159.875 133.292969 157.363281 135.734375 C 154.851562 138.171875 152.988281 141.195312 151.972656 144.476562 C 151.59375 145.707031 151.320312 147.121094 151.164062 148.683594 C 150.265625 157.597656 153.488281 166.527344 160.003906 173.179688 C 165.335938 178.625 171.726562 183.027344 176.148438 185.761719 C 178.25 187.0625 180.027344 188.0625 181.359375 188.773438 C 169.277344 196.085938 150.171875 200.484375 135.183594 201.6875 L 135.183594 128.5 L 140.878906 123.804688 L 148.777344 117.296875 L 187.902344 85.039062 L 222.238281 116.039062 L 223.628906 117.296875 L 230.839844 123.804688 L 231.101562 124.042969 L 239.945312 132.027344 Z M 188.144531 184.03125 C 188.011719 184.042969 187.878906 184.058594 187.746094 184.074219 C 187.691406 184.078125 187.628906 184.085938 187.566406 184.09375 L 187.5625 184.09375 C 187.5 184.085938 187.4375 184.078125 187.382812 184.074219 C 187.339844 184.070312 187.300781 184.0625 187.257812 184.058594 C 185.878906 183.417969 183.039062 181.941406 179.542969 179.757812 C 175.578125 177.28125 169.859375 173.316406 165.132812 168.492188 C 160.019531 163.273438 157.488281 156.292969 158.191406 149.347656 C 158.304688 148.21875 158.488281 147.234375 158.738281 146.425781 C 160.136719 141.898438 163.761719 138.382812 168.4375 137.015625 C 170.011719 136.558594 171.609375 136.324219 173.183594 136.324219 C 178.332031 136.324219 183.085938 138.824219 185.894531 143.011719 C 186.261719 143.554688 186.875 143.878906 187.546875 143.878906 C 188.214844 143.878906 188.828125 143.554688 189.195312 143.011719 C 191.996094 138.839844 196.726562 136.339844 201.855469 136.324219 L 201.90625 136.324219 C 205.898438 136.324219 209.832031 137.960938 212.703125 140.8125 C 215.574219 143.667969 217.15625 147.515625 217.046875 151.375 C 217.027344 152.019531 216.972656 152.8125 216.882812 153.726562 C 216.371094 158.886719 214.128906 163.847656 210.566406 167.695312 C 205.890625 172.746094 200.082031 176.910156 196.03125 179.515625 C 192.472656 181.804688 189.574219 183.347656 188.144531 184.03125 Z M 187.671875 184.246094 C 187.617188 184.222656 187.558594 184.199219 187.492188 184.167969 C 187.515625 184.164062 187.539062 184.164062 187.5625 184.160156 C 187.636719 184.167969 187.714844 184.179688 187.789062 184.195312 C 187.75 184.210938 187.710938 184.230469 187.671875 184.246094 Z M 261.042969 142.171875 L 246.683594 129.199219 L 235.703125 119.289062 C 235.710938 119.191406 235.710938 119.09375 235.710938 118.992188 L 235.710938 101.121094 C 235.710938 99.46875 234.324219 98.128906 232.613281 98.128906 L 225.335938 98.128906 C 223.625 98.128906 222.238281 99.46875 222.238281 101.121094 L 222.238281 107.128906 L 190.304688 78.296875 C 189.054688 77.164062 187.121094 77.125 185.820312 78.199219 L 138.398438 117.296875 L 128.445312 125.5 L 114.070312 137.351562 C 112.652344 138.519531 112.488281 140.574219 113.695312 141.941406 C 114.902344 143.308594 117.027344 143.472656 118.441406 142.304688 L 128.445312 134.054688 L 128.445312 205.011719 C 128.445312 206.808594 129.953125 208.265625 131.816406 208.265625 L 134.167969 208.265625 C 134.167969 208.265625 134.972656 208.234375 135.183594 208.21875 C 144.542969 207.507812 155.03125 205.609375 164.132812 202.972656 C 169.660156 201.371094 174.679688 199.507812 179.054688 197.4375 C 182.238281 195.929688 185.082031 194.308594 187.5625 192.589844 C 188.804688 193.449219 190.132812 194.285156 191.554688 195.09375 C 192.972656 195.902344 194.480469 196.683594 196.074219 197.4375 C 200.449219 199.507812 205.464844 201.371094 210.996094 202.972656 C 220.09375 205.609375 230.585938 207.507812 239.945312 208.21875 C 240.15625 208.234375 240.960938 208.265625 240.960938 208.265625 L 243.3125 208.265625 C 245.171875 208.265625 246.683594 206.808594 246.683594 205.011719 L 246.683594 138.109375 L 256.445312 146.925781 C 257.09375 147.511719 257.917969 147.800781 258.742188 147.800781 C 259.644531 147.800781 260.542969 147.457031 261.203125 146.769531 C 262.476562 145.457031 262.402344 143.398438 261.042969 142.171875 " fill-opacity="1" fill-rule="nonzero"/></g><path fill="#afddff" d="M 195.042969 156.832031 L 190.929688 156.832031 L 190.929688 152.71875 C 190.929688 150.824219 189.394531 149.289062 187.5 149.289062 C 185.605469 149.289062 184.070312 150.824219 184.070312 152.71875 L 184.070312 156.832031 L 179.957031 156.832031 C 178.0625 156.832031 176.527344 158.367188 176.527344 160.261719 C 176.527344 162.15625 178.0625 163.691406 179.957031 163.691406 L 184.070312 163.691406 L 184.070312 167.804688 C 184.070312 169.699219 185.605469 171.234375 187.5 171.234375 C 189.394531 171.234375 190.929688 169.699219 190.929688 167.804688 L 190.929688 163.691406 L 195.042969 163.691406 C 196.9375 163.691406 198.472656 162.15625 198.472656 160.261719 C 198.472656 158.367188 196.9375 156.832031 195.042969 156.832031 " fill-opacity="1" fill-rule="nonzero"/><g fill="#003060" fill-opacity="1"><g transform="translate(58.806339, 248.612391)"><g><path d="M 19.34375 0 L 13.921875 0 L 13 -6.203125 L 6.40625 -6.203125 L 5.46875 0 L 0.53125 0 L 6 -34.1875 L 13.875 -34.1875 Z M 7.078125 -10.84375 L 12.265625 -10.84375 L 9.671875 -28.140625 Z M 7.078125 -10.84375 "/></g></g></g><g fill="#003060" fill-opacity="1"><g transform="translate(82.350844, 248.612391)"><g><path d="M 1.953125 -34.1875 L 7.328125 -34.1875 L 7.328125 -4.890625 L 16.171875 -4.890625 L 16.171875 0 L 1.953125 0 Z M 1.953125 -34.1875 "/></g></g></g><g fill="#003060" fill-opacity="1"><g transform="translate(102.573789, 248.612391)"><g><path d="M 6.734375 -24.765625 L 6.734375 0 L 1.90625 0 L 1.90625 -34.1875 L 8.640625 -34.1875 L 14.171875 -13.71875 L 14.171875 -34.1875 L 18.953125 -34.1875 L 18.953125 0 L 13.4375 0 Z M 6.734375 -24.765625 "/></g></g></g><g fill="#003060" fill-opacity="1"><g transform="translate(127.095226, 248.612391)"><g><path d="M 13.875 -18.21875 L 11.921875 0 L 4.546875 0 L 0.734375 -34.1875 L 5.953125 -34.1875 L 8.84375 -7.234375 L 11.421875 -34.1875 L 16.609375 -34.1875 L 19.296875 -7.03125 L 22.078125 -34.1875 L 26.765625 -34.1875 L 22.953125 0 L 15.828125 0 Z M 13.875 -18.21875 "/></g></g></g><g fill="#003060" fill-opacity="1"><g transform="translate(158.259766, 248.612391)"><g><path d="M 1.953125 -34.1875 L 7.328125 -34.1875 L 7.328125 0 L 1.953125 0 Z M 1.953125 -34.1875 "/></g></g></g><g fill="#003060" fill-opacity="1"><g transform="translate(171.204601, 248.612391)"><g><path d="M 17.53125 -12.75 L 17.53125 -8.203125 C 17.53125 -5.429688 16.851562 -3.304688 15.5 -1.828125 C 14.15625 -0.347656 12.164062 0.390625 9.53125 0.390625 C 6.882812 0.390625 4.882812 -0.347656 3.53125 -1.828125 C 2.1875 -3.304688 1.515625 -5.429688 1.515625 -8.203125 L 1.515625 -25.984375 C 1.515625 -28.753906 2.1875 -30.878906 3.53125 -32.359375 C 4.882812 -33.835938 6.882812 -34.578125 9.53125 -34.578125 C 12.164062 -34.578125 14.15625 -33.835938 15.5 -32.359375 C 16.851562 -30.878906 17.53125 -28.753906 17.53125 -25.984375 L 17.53125 -22.65625 L 12.453125 -22.65625 L 12.453125 -26.328125 C 12.453125 -27.566406 12.195312 -28.4375 11.6875 -28.9375 C 11.1875 -29.445312 10.515625 -29.703125 9.671875 -29.703125 C 8.828125 -29.703125 8.148438 -29.445312 7.640625 -28.9375 C 7.140625 -28.4375 6.890625 -27.566406 6.890625 -26.328125 L 6.890625 -7.859375 C 6.890625 -6.617188 7.140625 -5.753906 7.640625 -5.265625 C 8.148438 -4.785156 8.828125 -4.546875 9.671875 -4.546875 C 10.515625 -4.546875 11.1875 -4.785156 11.6875 -5.265625 C 12.195312 -5.753906 12.453125 -6.617188 12.453125 -7.859375 L 12.453125 -12.75 Z M 17.53125 -12.75 "/></g></g></g><g fill="#003060" fill-opacity="1"><g transform="translate(193.723322, 248.612391)"><g><path d="M 8.984375 -13.625 L 7.328125 -10.5 L 7.328125 0 L 1.953125 0 L 1.953125 -34.1875 L 7.328125 -34.1875 L 7.328125 -19.296875 L 14.359375 -34.1875 L 19.734375 -34.1875 L 12.265625 -18.953125 L 19.734375 0 L 14.21875 0 Z M 8.984375 -13.625 "/></g></g></g><g fill="#003060" fill-opacity="1"><g transform="translate(217.609743, 248.612391)"><g/></g></g><g fill="#003060" fill-opacity="1"><g transform="translate(228.844949, 248.612391)"><g><path d="M 17.53125 -12.75 L 17.53125 -8.203125 C 17.53125 -5.429688 16.851562 -3.304688 15.5 -1.828125 C 14.15625 -0.347656 12.164062 0.390625 9.53125 0.390625 C 6.882812 0.390625 4.882812 -0.347656 3.53125 -1.828125 C 2.1875 -3.304688 1.515625 -5.429688 1.515625 -8.203125 L 1.515625 -25.984375 C 1.515625 -28.753906 2.1875 -30.878906 3.53125 -32.359375 C 4.882812 -33.835938 6.882812 -34.578125 9.53125 -34.578125 C 12.164062 -34.578125 14.15625 -33.835938 15.5 -32.359375 C 16.851562 -30.878906 17.53125 -28.753906 17.53125 -25.984375 L 17.53125 -22.65625 L 12.453125 -22.65625 L 12.453125 -26.328125 C 12.453125 -27.566406 12.195312 -28.4375 11.6875 -28.9375 C 11.1875 -29.445312 10.515625 -29.703125 9.671875 -29.703125 C 8.828125 -29.703125 8.148438 -29.445312 7.640625 -28.9375 C 7.140625 -28.4375 6.890625 -27.566406 6.890625 -26.328125 L 6.890625 -7.859375 C 6.890625 -6.617188 7.140625 -5.753906 7.640625 -5.265625 C 8.148438 -4.785156 8.828125 -4.546875 9.671875 -4.546875 C 10.515625 -4.546875 11.1875 -4.785156 11.6875 -5.265625 C 12.195312 -5.753906 12.453125 -6.617188 12.453125 -7.859375 L 12.453125 -12.75 Z M 17.53125 -12.75 "/></g></g></g><g fill="#003060" fill-opacity="1"><g transform="translate(251.36367, 248.612391)"><g><path d="M 19.34375 0 L 13.921875 0 L 13 -6.203125 L 6.40625 -6.203125 L 5.46875 0 L 0.53125 0 L 6 -34.1875 L 13.875 -34.1875 Z M 7.078125 -10.84375 L 12.265625 -10.84375 L 9.671875 -28.140625 Z M 7.078125 -10.84375 "/></g></g></g><g fill="#003060" fill-opacity="1"><g transform="translate(274.908183, 248.612391)"><g><path d="M 13.1875 0 C 13.125 -0.226562 13.054688 -0.4375 12.984375 -0.625 C 12.921875 -0.820312 12.863281 -1.066406 12.8125 -1.359375 C 12.769531 -1.660156 12.738281 -2.035156 12.71875 -2.484375 C 12.707031 -2.941406 12.703125 -3.515625 12.703125 -4.203125 L 12.703125 -9.578125 C 12.703125 -11.171875 12.421875 -12.289062 11.859375 -12.9375 C 11.304688 -13.59375 10.414062 -13.921875 9.1875 -13.921875 L 7.328125 -13.921875 L 7.328125 0 L 1.953125 0 L 1.953125 -34.1875 L 10.0625 -34.1875 C 12.863281 -34.1875 14.890625 -33.535156 16.140625 -32.234375 C 17.390625 -30.929688 18.015625 -28.960938 18.015625 -26.328125 L 18.015625 -23.640625 C 18.015625 -20.117188 16.84375 -17.804688 14.5 -16.703125 C 15.875 -16.148438 16.8125 -15.242188 17.3125 -13.984375 C 17.820312 -12.734375 18.078125 -11.210938 18.078125 -9.421875 L 18.078125 -4.15625 C 18.078125 -3.300781 18.109375 -2.554688 18.171875 -1.921875 C 18.234375 -1.296875 18.394531 -0.65625 18.65625 0 Z M 7.328125 -29.3125 L 7.328125 -18.8125 L 9.421875 -18.8125 C 10.429688 -18.8125 11.222656 -19.070312 11.796875 -19.59375 C 12.367188 -20.113281 12.65625 -21.054688 12.65625 -22.421875 L 12.65625 -25.796875 C 12.65625 -27.023438 12.429688 -27.914062 11.984375 -28.46875 C 11.546875 -29.03125 10.859375 -29.3125 9.921875 -29.3125 Z M 7.328125 -29.3125 "/></g></g></g><g fill="#003060" fill-opacity="1"><g transform="translate(298.208456, 248.612391)"><g><path d="M 7.328125 -19.78125 L 14.703125 -19.78125 L 14.703125 -14.890625 L 7.328125 -14.890625 L 7.328125 -4.890625 L 16.609375 -4.890625 L 16.609375 0 L 1.953125 0 L 1.953125 -34.1875 L 16.609375 -34.1875 L 16.609375 -29.3125 L 7.328125 -29.3125 Z M 7.328125 -19.78125 "/></g></g></g><g fill="#afddff" fill-opacity="1"><g transform="translate(93.722923, 274.516302)"><g><path d="M 1.96875 0 L 0.703125 0 L 0.703125 -12.59375 L 2.484375 -12.59375 L 5.40625 -3.484375 L 5.40625 -12.59375 L 6.640625 -12.59375 L 6.640625 0 L 5.1875 0 L 1.96875 -10.1875 Z M 1.96875 0 "/></g></g></g><g fill="#afddff" fill-opacity="1"><g transform="translate(107.784321, 274.516302)"><g><path d="M 0.609375 -9.5625 C 0.609375 -10.53125 0.84375 -11.296875 1.3125 -11.859375 C 1.789062 -12.429688 2.515625 -12.71875 3.484375 -12.71875 C 4.460938 -12.71875 5.191406 -12.429688 5.671875 -11.859375 C 6.148438 -11.296875 6.390625 -10.53125 6.390625 -9.5625 L 6.390625 -3.046875 C 6.390625 -2.085938 6.148438 -1.316406 5.671875 -0.734375 C 5.191406 -0.160156 4.460938 0.125 3.484375 0.125 C 2.515625 0.125 1.789062 -0.160156 1.3125 -0.734375 C 0.84375 -1.316406 0.609375 -2.085938 0.609375 -3.046875 Z M 2 -2.96875 C 2 -2.394531 2.117188 -1.945312 2.359375 -1.625 C 2.609375 -1.3125 2.984375 -1.15625 3.484375 -1.15625 C 4.003906 -1.15625 4.382812 -1.3125 4.625 -1.625 C 4.863281 -1.945312 4.984375 -2.394531 4.984375 -2.96875 L 4.984375 -9.625 C 4.984375 -10.207031 4.863281 -10.65625 4.625 -10.96875 C 4.382812 -11.289062 4.003906 -11.453125 3.484375 -11.453125 C 2.984375 -11.453125 2.609375 -11.289062 2.359375 -10.96875 C 2.117188 -10.65625 2 -10.207031 2 -9.625 Z M 2 -2.96875 "/></g></g></g><g fill="#afddff" fill-opacity="1"><g transform="translate(121.485728, 274.516302)"><g><path d="M 3.53125 -12.59375 C 4.519531 -12.59375 5.234375 -12.347656 5.671875 -11.859375 C 6.117188 -11.367188 6.34375 -10.65625 6.34375 -9.71875 L 6.34375 -8.6875 C 6.34375 -8 6.210938 -7.4375 5.953125 -7 C 5.703125 -6.570312 5.304688 -6.273438 4.765625 -6.109375 C 5.347656 -5.929688 5.757812 -5.617188 6 -5.171875 C 6.238281 -4.722656 6.359375 -4.15625 6.359375 -3.46875 L 6.359375 -1.515625 C 6.359375 -1.234375 6.367188 -0.960938 6.390625 -0.703125 C 6.410156 -0.453125 6.484375 -0.21875 6.609375 0 L 5.1875 0 C 5.101562 -0.175781 5.039062 -0.367188 5 -0.578125 C 4.96875 -0.796875 4.953125 -1.113281 4.953125 -1.53125 L 4.953125 -3.515625 C 4.953125 -4.222656 4.789062 -4.707031 4.46875 -4.96875 C 4.15625 -5.238281 3.703125 -5.375 3.109375 -5.375 L 2.125 -5.375 L 2.125 0 L 0.71875 0 L 0.71875 -12.59375 Z M 3.171875 -6.65625 C 3.734375 -6.65625 4.171875 -6.769531 4.484375 -7 C 4.796875 -7.238281 4.953125 -7.703125 4.953125 -8.390625 L 4.953125 -9.59375 C 4.953125 -10.164062 4.835938 -10.597656 4.609375 -10.890625 C 4.390625 -11.179688 4.015625 -11.328125 3.484375 -11.328125 L 2.125 -11.328125 L 2.125 -6.65625 Z M 3.171875 -6.65625 "/></g></g></g><g fill="#afddff" fill-opacity="1"><g transform="translate(135.277126, 274.516302)"><g><path d="M 2.53125 0 L 2.53125 -11.328125 L 0.21875 -11.328125 L 0.21875 -12.59375 L 6.25 -12.59375 L 6.25 -11.328125 L 3.921875 -11.328125 L 3.921875 0 Z M 2.53125 0 "/></g></g></g><g fill="#afddff" fill-opacity="1"><g transform="translate(148.456538, 274.516302)"><g><path d="M 2.125 -5.671875 L 2.125 0 L 0.71875 0 L 0.71875 -12.59375 L 2.125 -12.59375 L 2.125 -6.9375 L 5.21875 -6.9375 L 5.21875 -12.59375 L 6.625 -12.59375 L 6.625 0 L 5.21875 0 L 5.21875 -5.671875 Z M 2.125 -5.671875 "/></g></g></g><g fill="#afddff" fill-opacity="1"><g transform="translate(162.499936, 274.516302)"><g><path d="M 2.046875 -2.96875 C 2.046875 -2.394531 2.160156 -1.945312 2.390625 -1.625 C 2.628906 -1.3125 3.007812 -1.15625 3.53125 -1.15625 C 4.03125 -1.15625 4.394531 -1.3125 4.625 -1.625 C 4.863281 -1.945312 4.984375 -2.394531 4.984375 -2.96875 L 4.984375 -12.59375 L 6.296875 -12.59375 L 6.296875 -3.046875 C 6.296875 -2.085938 6.066406 -1.316406 5.609375 -0.734375 C 5.160156 -0.148438 4.445312 0.140625 3.46875 0.140625 C 2.507812 0.140625 1.800781 -0.148438 1.34375 -0.734375 C 0.894531 -1.316406 0.671875 -2.085938 0.671875 -3.046875 L 0.671875 -12.59375 L 2.046875 -12.59375 Z M 2.046875 -2.96875 "/></g></g></g><g fill="#afddff" fill-opacity="1"><g transform="translate(176.16534, 274.516302)"><g><path d="M 5.359375 -0.015625 L 4.015625 -0.015625 L 1.921875 -10.046875 L 1.921875 0 L 0.703125 0 L 0.703125 -12.59375 L 2.65625 -12.59375 L 4.734375 -2.53125 L 6.734375 -12.59375 L 8.6875 -12.59375 L 8.6875 0 L 7.359375 0 L 7.359375 -10.140625 Z M 5.359375 -0.015625 "/></g></g></g><g fill="#afddff" fill-opacity="1"><g transform="translate(192.278715, 274.516302)"><g><path d="M 3.546875 -12.59375 C 4.523438 -12.59375 5.222656 -12.363281 5.640625 -11.90625 C 6.066406 -11.445312 6.28125 -10.75 6.28125 -9.8125 L 6.28125 -9.21875 C 6.28125 -8.539062 6.171875 -7.992188 5.953125 -7.578125 C 5.742188 -7.171875 5.363281 -6.882812 4.8125 -6.71875 C 5.414062 -6.550781 5.847656 -6.234375 6.109375 -5.765625 C 6.367188 -5.296875 6.5 -4.710938 6.5 -4.015625 L 6.5 -2.953125 C 6.5 -2.003906 6.265625 -1.273438 5.796875 -0.765625 C 5.328125 -0.253906 4.601562 0 3.625 0 L 0.71875 0 L 0.71875 -12.59375 Z M 3.203125 -7.25 C 3.765625 -7.25 4.1875 -7.363281 4.46875 -7.59375 C 4.75 -7.820312 4.890625 -8.265625 4.890625 -8.921875 L 4.890625 -9.671875 C 4.890625 -10.234375 4.785156 -10.648438 4.578125 -10.921875 C 4.367188 -11.191406 4.015625 -11.328125 3.515625 -11.328125 L 2.125 -11.328125 L 2.125 -7.25 Z M 3.625 -1.28125 C 4.613281 -1.28125 5.109375 -1.847656 5.109375 -2.984375 L 5.109375 -4.109375 C 5.109375 -4.816406 4.96875 -5.300781 4.6875 -5.5625 C 4.40625 -5.832031 3.957031 -5.96875 3.34375 -5.96875 L 2.125 -5.96875 L 2.125 -1.28125 Z M 3.625 -1.28125 "/></g></g></g><g fill="#afddff" fill-opacity="1"><g transform="translate(206.034122, 274.516302)"><g><path d="M 5.203125 -7.015625 L 5.203125 -5.765625 L 2.125 -5.765625 L 2.125 -1.28125 L 5.90625 -1.28125 L 5.90625 0 L 0.71875 0 L 0.71875 -12.59375 L 5.90625 -12.59375 L 5.90625 -11.328125 L 2.125 -11.328125 L 2.125 -7.015625 Z M 5.203125 -7.015625 "/></g></g></g><g fill="#afddff" fill-opacity="1"><g transform="translate(219.213537, 274.516302)"><g><path d="M 3.53125 -12.59375 C 4.519531 -12.59375 5.234375 -12.347656 5.671875 -11.859375 C 6.117188 -11.367188 6.34375 -10.65625 6.34375 -9.71875 L 6.34375 -8.6875 C 6.34375 -8 6.210938 -7.4375 5.953125 -7 C 5.703125 -6.570312 5.304688 -6.273438 4.765625 -6.109375 C 5.347656 -5.929688 5.757812 -5.617188 6 -5.171875 C 6.238281 -4.722656 6.359375 -4.15625 6.359375 -3.46875 L 6.359375 -1.515625 C 6.359375 -1.234375 6.367188 -0.960938 6.390625 -0.703125 C 6.410156 -0.453125 6.484375 -0.21875 6.609375 0 L 5.1875 0 C 5.101562 -0.175781 5.039062 -0.367188 5 -0.578125 C 4.96875 -0.796875 4.953125 -1.113281 4.953125 -1.53125 L 4.953125 -3.515625 C 4.953125 -4.222656 4.789062 -4.707031 4.46875 -4.96875 C 4.15625 -5.238281 3.703125 -5.375 3.109375 -5.375 L 2.125 -5.375 L 2.125 0 L 0.71875 0 L 0.71875 -12.59375 Z M 3.171875 -6.65625 C 3.734375 -6.65625 4.171875 -6.769531 4.484375 -7 C 4.796875 -7.238281 4.953125 -7.703125 4.953125 -8.390625 L 4.953125 -9.59375 C 4.953125 -10.164062 4.835938 -10.597656 4.609375 -10.890625 C 4.390625 -11.179688 4.015625 -11.328125 3.484375 -11.328125 L 2.125 -11.328125 L 2.125 -6.65625 Z M 3.171875 -6.65625 "/></g></g></g><g fill="#afddff" fill-opacity="1"><g transform="translate(233.004938, 274.516302)"><g><path d="M 0.71875 0 L 0.71875 -12.59375 L 2.125 -12.59375 L 2.125 -1.28125 L 5.71875 -1.28125 L 5.71875 0 Z M 0.71875 0 "/></g></g></g><g fill="#afddff" fill-opacity="1"><g transform="translate(245.770352, 274.516302)"><g><path d="M 2.140625 -2.53125 L 1.65625 0 L 0.359375 0 L 2.765625 -12.59375 L 4.8125 -12.59375 L 7.21875 0 L 5.8125 0 L 5.328125 -2.53125 Z M 2.328125 -3.75 L 5.125 -3.75 L 3.703125 -11.015625 Z M 2.328125 -3.75 "/></g></g></g><g fill="#afddff" fill-opacity="1"><g transform="translate(260.065747, 274.516302)"><g><path d="M 1.96875 0 L 0.703125 0 L 0.703125 -12.59375 L 2.484375 -12.59375 L 5.40625 -3.484375 L 5.40625 -12.59375 L 6.640625 -12.59375 L 6.640625 0 L 5.1875 0 L 1.96875 -10.1875 Z M 1.96875 0 "/></g></g></g><g fill="#afddff" fill-opacity="1"><g transform="translate(274.127148, 274.516302)"><g><path d="M 3.671875 -12.59375 C 4.648438 -12.59375 5.367188 -12.3125 5.828125 -11.75 C 6.296875 -11.195312 6.53125 -10.4375 6.53125 -9.46875 L 6.53125 -3.109375 C 6.53125 -2.140625 6.296875 -1.378906 5.828125 -0.828125 C 5.367188 -0.273438 4.648438 0 3.671875 0 L 0.71875 0 L 0.71875 -12.59375 Z M 3.65625 -1.28125 C 4.15625 -1.28125 4.523438 -1.429688 4.765625 -1.734375 C 5.015625 -2.046875 5.140625 -2.488281 5.140625 -3.0625 L 5.140625 -9.546875 C 5.140625 -10.117188 5.015625 -10.554688 4.765625 -10.859375 C 4.523438 -11.171875 4.148438 -11.328125 3.640625 -11.328125 L 2.125 -11.328125 L 2.125 -1.28125 Z M 3.65625 -1.28125 "/></g></g></g></svg>